<svg xmlns="http://www.w3.org/2000/svg" xmlns:xlink="http://www.w3.org/1999/xlink" width="500" zoomAndPan="magnify" viewBox="0 0 375 374.999991" height="500" preserveAspectRatio="xMidYMid meet" version="1.0"><defs><g/></defs><g fill="#e4e2dd" fill-opacity="1"><g transform="translate(47.409376, 212.249986)"><g><path d="M 58.140625 -46.171875 L 36.1875 -24.125 L 60.296875 0 L 39.78125 0 L 21.328125 -18.453125 L 21.328125 0 L 5.40625 0 L 5.40625 -77.40625 L 21.328125 -77.40625 L 21.328125 -30.0625 L 37.4375 -46.171875 Z M 58.140625 -46.171875 "/></g></g></g><g fill="#e4e2dd" fill-opacity="1"><g transform="translate(97.899321, 212.249986)"><g><path d="M 9.75 -5.484375 C 4.625 -10.046875 2.0625 -15.894531 2.0625 -23.03125 C 2.0625 -30.175781 4.734375 -36.039062 10.078125 -40.625 C 15.421875 -45.21875 22.019531 -47.515625 29.875 -47.515625 C 37.613281 -47.515625 44.140625 -45.203125 49.453125 -40.578125 C 54.765625 -35.960938 57.421875 -30.113281 57.421875 -23.03125 C 57.421875 -15.957031 54.820312 -10.125 49.625 -5.53125 C 44.4375 -0.945312 37.851562 1.34375 29.875 1.34375 C 21.59375 1.34375 14.882812 -0.929688 9.75 -5.484375 Z M 22.09375 -30.875 C 20.019531 -28.832031 18.984375 -26.21875 18.984375 -23.03125 C 18.984375 -19.851562 19.972656 -17.257812 21.953125 -15.25 C 23.941406 -13.238281 26.554688 -12.234375 29.796875 -12.234375 C 32.910156 -12.234375 35.472656 -13.253906 37.484375 -15.296875 C 39.492188 -17.335938 40.5 -19.921875 40.5 -23.046875 C 40.5 -26.222656 39.460938 -28.832031 37.390625 -30.875 C 35.328125 -32.914062 32.796875 -33.9375 29.796875 -33.9375 C 26.734375 -33.9375 24.164062 -32.914062 22.09375 -30.875 Z M 22.09375 -30.875 "/></g></g></g><g fill="#e4e2dd" fill-opacity="1"><g transform="translate(149.739268, 212.249986)"><g><path d="M 5.40625 0 L 5.40625 -46.171875 L 21.328125 -46.171875 L 21.328125 -41.3125 L 21.515625 -41.3125 C 25.648438 -45.445312 30.054688 -47.515625 34.734375 -47.515625 C 37.015625 -47.515625 39.28125 -47.210938 41.53125 -46.609375 C 43.78125 -46.015625 45.941406 -45.085938 48.015625 -43.828125 C 50.085938 -42.566406 51.765625 -40.78125 53.046875 -38.46875 C 54.335938 -36.164062 54.984375 -33.484375 54.984375 -30.421875 L 54.984375 0 L 39.0625 0 L 39.0625 -26.09375 C 39.0625 -28.5 38.296875 -30.597656 36.765625 -32.390625 C 35.234375 -34.191406 33.238281 -35.09375 30.78125 -35.09375 C 28.382812 -35.09375 26.207031 -34.160156 24.25 -32.296875 C 22.300781 -30.441406 21.328125 -28.375 21.328125 -26.09375 L 21.328125 0 Z M 5.40625 0 "/></g></g></g><g fill="#e4e2dd" fill-opacity="1"><g transform="translate(201.579216, 212.249986)"><g><path d="M 8.09375 -46.171875 L 8.09375 -63.359375 L 24.03125 -63.359375 L 24.03125 -46.171875 L 33.75 -46.171875 L 33.75 -34.015625 L 24.03125 -34.015625 L 24.03125 -19.34375 C 24.03125 -15.082031 25.226562 -12.953125 27.625 -12.953125 C 28.226562 -12.953125 28.859375 -13.070312 29.515625 -13.3125 C 30.179688 -13.5625 30.691406 -13.804688 31.046875 -14.046875 L 31.59375 -14.40625 L 35.546875 -1.53125 C 32.128906 0.382812 28.226562 1.34375 23.84375 1.34375 C 20.84375 1.34375 18.265625 0.820312 16.109375 -0.21875 C 13.953125 -1.269531 12.316406 -2.679688 11.203125 -4.453125 C 10.097656 -6.222656 9.300781 -8.082031 8.8125 -10.03125 C 8.332031 -11.976562 8.09375 -14.066406 8.09375 -16.296875 L 8.09375 -34.015625 L 1.4375 -34.015625 L 1.4375 -46.171875 Z M 8.09375 -46.171875 "/></g></g></g><g fill="#e4e2dd" fill-opacity="1"><g transform="translate(229.479177, 212.249986)"><g><path d="M 8.546875 -5.71875 C 4.222656 -10.425781 2.0625 -16.195312 2.0625 -23.03125 C 2.0625 -29.875 4.222656 -35.664062 8.546875 -40.40625 C 12.867188 -45.144531 18.359375 -47.515625 25.015625 -47.515625 C 31.140625 -47.515625 36.179688 -45.597656 40.140625 -41.765625 L 40.140625 -46.171875 L 56.0625 -46.171875 L 56.0625 0 L 40.3125 0 L 40.3125 -5.21875 L 40.140625 -5.21875 C 36.179688 -0.84375 31.140625 1.34375 25.015625 1.34375 C 18.359375 1.34375 12.867188 -1.007812 8.546875 -5.71875 Z M 22.09375 -30.875 C 20.019531 -28.832031 18.984375 -26.21875 18.984375 -23.03125 C 18.984375 -19.851562 19.972656 -17.257812 21.953125 -15.25 C 23.941406 -13.238281 26.554688 -12.234375 29.796875 -12.234375 C 32.910156 -12.234375 35.472656 -13.253906 37.484375 -15.296875 C 39.492188 -17.335938 40.5 -19.921875 40.5 -23.046875 C 40.5 -26.222656 39.460938 -28.832031 37.390625 -30.875 C 35.328125 -32.914062 32.796875 -33.9375 29.796875 -33.9375 C 26.734375 -33.9375 24.164062 -32.914062 22.09375 -30.875 Z M 22.09375 -30.875 "/></g></g></g><g fill="#e4e2dd" fill-opacity="1"><g transform="translate(283.299101, 212.249986)"><g><path d="M 25.46875 -47.515625 C 28.113281 -47.515625 30.722656 -47.210938 33.296875 -46.609375 C 35.878906 -46.015625 37.800781 -45.414062 39.0625 -44.8125 L 40.953125 -43.921875 L 35.734375 -33.484375 C 32.128906 -35.398438 28.707031 -36.359375 25.46875 -36.359375 C 23.664062 -36.359375 22.390625 -36.160156 21.640625 -35.765625 C 20.890625 -35.378906 20.515625 -34.644531 20.515625 -33.5625 C 20.515625 -33.320312 20.546875 -33.082031 20.609375 -32.84375 C 20.671875 -32.601562 20.789062 -32.378906 20.96875 -32.171875 C 21.144531 -31.960938 21.304688 -31.78125 21.453125 -31.625 C 21.609375 -31.476562 21.863281 -31.316406 22.21875 -31.140625 C 22.582031 -30.960938 22.867188 -30.828125 23.078125 -30.734375 C 23.296875 -30.640625 23.644531 -30.503906 24.125 -30.328125 C 24.601562 -30.148438 24.960938 -30.015625 25.203125 -29.921875 C 25.441406 -29.835938 25.84375 -29.703125 26.40625 -29.515625 C 26.976562 -29.335938 27.414062 -29.21875 27.71875 -29.15625 C 29.582031 -28.613281 31.203125 -28.015625 32.578125 -27.359375 C 33.960938 -26.703125 35.414062 -25.800781 36.9375 -24.65625 C 38.46875 -23.519531 39.65625 -22.082031 40.5 -20.34375 C 41.34375 -18.601562 41.765625 -16.625 41.765625 -14.40625 C 41.765625 -3.90625 34.472656 1.34375 19.890625 1.34375 C 16.585938 1.34375 13.453125 0.835938 10.484375 -0.171875 C 7.515625 -1.191406 5.367188 -2.210938 4.046875 -3.234375 L 2.0625 -4.859375 L 8.546875 -15.75 C 9.023438 -15.332031 9.65625 -14.835938 10.4375 -14.265625 C 11.21875 -13.691406 12.628906 -12.910156 14.671875 -11.921875 C 16.710938 -10.929688 18.484375 -10.4375 19.984375 -10.4375 C 23.285156 -10.4375 24.9375 -11.546875 24.9375 -13.765625 C 24.9375 -14.785156 24.515625 -15.582031 23.671875 -16.15625 C 22.828125 -16.726562 21.398438 -17.375 19.390625 -18.09375 C 17.378906 -18.8125 15.804688 -19.46875 14.671875 -20.0625 C 11.785156 -21.5625 9.503906 -23.253906 7.828125 -25.140625 C 6.148438 -27.035156 5.3125 -29.546875 5.3125 -32.671875 C 5.3125 -37.347656 7.125 -40.988281 10.75 -43.59375 C 14.382812 -46.207031 19.289062 -47.515625 25.46875 -47.515625 Z M 25.46875 -47.515625 "/></g></g></g><path stroke-linecap="butt" transform="matrix(1.351506, 0, 0, 1.351506, 18.750003, 231.595355)" fill="none" stroke-linejoin="miter" d="M -0.0000024186 4.999021 L 84.434158 4.999021 " stroke="#e4e2dd" stroke-width="10" stroke-opacity="1" stroke-miterlimit="4"/><path stroke-linecap="butt" transform="matrix(0, 1.351506, -1.351506, 0, 32.258136, 129.613057)" fill="none" stroke-linejoin="miter" d="M 0.00016586 5.000448 L 82.463146 5.000448 " stroke="#e4e2dd" stroke-width="10" stroke-opacity="1" stroke-miterlimit="4"/><path stroke-linecap="butt" transform="matrix(-1.34819, 0, 0, -1.34819, 356.242306, 143.369287)" fill="none" stroke-linejoin="miter" d="M 0.0000878264 4.999577 L 84.43329 4.999577 " stroke="#e4e2dd" stroke-width="10" stroke-opacity="1" stroke-miterlimit="4"/><path stroke-linecap="butt" transform="matrix(0, -1.34819, 1.34819, 0, 342.767296, 245.10139)" fill="none" stroke-linejoin="miter" d="M -0.000127723 4.999677 L 82.462841 4.999677 " stroke="#e4e2dd" stroke-width="10" stroke-opacity="1" stroke-miterlimit="4"/></svg>